<mxfile host="app.diagrams.net" modified="2023-10-22T00:18:32.515Z" agent="Mozilla/5.0 (Windows NT 10.0; Win64; x64) AppleWebKit/537.36 (KHTML, like Gecko) Chrome/118.0.0.0 Safari/537.36" etag="PRJtFJafN2-J0tcvJ0zk" version="22.0.0" type="github">
  <diagram name="Página-1" id="xwObZU3hjkTy4uX8Xk1C">
    <mxGraphModel dx="880" dy="438" grid="1" gridSize="10" guides="1" tooltips="1" connect="1" arrows="1" fold="1" page="1" pageScale="1" pageWidth="1169" pageHeight="827" math="0" shadow="0">
      <root>
        <mxCell id="0" />
        <mxCell id="1" parent="0" />
        <mxCell id="X7kovaY1ohPTWgLVkFuY-23" value="" style="verticalLabelPosition=bottom;verticalAlign=top;html=1;shadow=0;dashed=0;strokeWidth=1;shape=mxgraph.android.phone2;strokeColor=#c0c0c0;" parent="1" vertex="1">
          <mxGeometry x="289.99999999999994" y="390" width="230" height="411" as="geometry" />
        </mxCell>
        <mxCell id="X7kovaY1ohPTWgLVkFuY-41" value="" style="verticalLabelPosition=bottom;verticalAlign=top;html=1;shadow=0;dashed=0;strokeWidth=1;shape=mxgraph.android.phone2;strokeColor=#c0c0c0;" parent="1" vertex="1">
          <mxGeometry x="20" y="390" width="230" height="411" as="geometry" />
        </mxCell>
        <mxCell id="X7kovaY1ohPTWgLVkFuY-42" value="foto" style="ellipse;whiteSpace=wrap;html=1;aspect=fixed;" parent="1" vertex="1">
          <mxGeometry x="83.4" y="470.40000000000003" width="103.2" height="103.2" as="geometry" />
        </mxCell>
        <mxCell id="X7kovaY1ohPTWgLVkFuY-43" value="&lt;h1&gt;Heading&lt;/h1&gt;&lt;p&gt;Lorem ipsum dolor sit amet, consectetur adipisicing elit, sed do eiusmod tempor incididunt ut labore et dolore magna aliqua.&lt;/p&gt;" style="text;html=1;strokeColor=none;fillColor=none;spacing=5;spacingTop=-20;whiteSpace=wrap;overflow=hidden;rounded=0;" parent="1" vertex="1">
          <mxGeometry x="40" y="600" width="190" height="90" as="geometry" />
        </mxCell>
        <mxCell id="X7kovaY1ohPTWgLVkFuY-44" value="" style="endArrow=none;html=1;rounded=0;exitX=0.043;exitY=0.584;exitDx=0;exitDy=0;exitPerimeter=0;" parent="1" edge="1">
          <mxGeometry width="50" height="50" relative="1" as="geometry">
            <mxPoint x="29.999999999999986" y="595.2039999999998" as="sourcePoint" />
            <mxPoint x="242.2499999999999" y="594.9999999999999" as="targetPoint" />
            <Array as="points">
              <mxPoint x="135.11" y="595.18" />
            </Array>
          </mxGeometry>
        </mxCell>
        <mxCell id="X7kovaY1ohPTWgLVkFuY-45" value="" style="html=1;verticalLabelPosition=bottom;align=center;labelBackgroundColor=#ffffff;verticalAlign=top;strokeWidth=2;strokeColor=#d79b00;shadow=0;dashed=0;shape=mxgraph.ios7.icons.most_viewed;pointerEvents=1;fillColor=#ffe6cc;" parent="1" vertex="1">
          <mxGeometry x="201.79999999999995" y="436.8" width="28.2" height="22.8" as="geometry" />
        </mxCell>
        <mxCell id="X7kovaY1ohPTWgLVkFuY-46" value="" style="shape=mxgraph.sysml.x;" parent="1" vertex="1">
          <mxGeometry x="475" y="440.4" width="30" height="30" as="geometry" />
        </mxCell>
        <mxCell id="X7kovaY1ohPTWgLVkFuY-48" value="Home" style="whiteSpace=wrap;html=1;align=left;fillColor=default;strokeColor=none;" parent="1" vertex="1">
          <mxGeometry x="300" y="481" width="210" height="39" as="geometry" />
        </mxCell>
        <mxCell id="X7kovaY1ohPTWgLVkFuY-49" value="Sobre mim" style="whiteSpace=wrap;html=1;align=left;strokeColor=none;" parent="1" vertex="1">
          <mxGeometry x="300" y="520" width="210" height="39" as="geometry" />
        </mxCell>
        <mxCell id="X7kovaY1ohPTWgLVkFuY-50" value="Portifólio" style="whiteSpace=wrap;html=1;align=left;strokeColor=none;" parent="1" vertex="1">
          <mxGeometry x="300" y="559" width="210" height="39" as="geometry" />
        </mxCell>
        <mxCell id="X7kovaY1ohPTWgLVkFuY-51" value="Contato" style="whiteSpace=wrap;html=1;align=left;strokeColor=none;" parent="1" vertex="1">
          <mxGeometry x="300" y="598" width="210" height="39" as="geometry" />
        </mxCell>
        <mxCell id="ptNBvM-OfE2qIYZedUmf-1" value="" style="rounded=0;whiteSpace=wrap;html=1;" vertex="1" parent="1">
          <mxGeometry x="20" y="20" width="760" height="380" as="geometry" />
        </mxCell>
        <mxCell id="ptNBvM-OfE2qIYZedUmf-2" value="" style="rounded=0;whiteSpace=wrap;html=1;" vertex="1" parent="1">
          <mxGeometry x="20" y="20" width="760" height="50" as="geometry" />
        </mxCell>
        <mxCell id="ptNBvM-OfE2qIYZedUmf-3" value="Kauan" style="text;html=1;align=center;verticalAlign=middle;resizable=0;points=[];autosize=1;strokeColor=none;fillColor=none;" vertex="1" parent="1">
          <mxGeometry x="30" y="30" width="60" height="30" as="geometry" />
        </mxCell>
        <mxCell id="ptNBvM-OfE2qIYZedUmf-4" value="Home" style="text;html=1;align=center;verticalAlign=middle;resizable=0;points=[];autosize=1;strokeColor=none;fillColor=none;" vertex="1" parent="1">
          <mxGeometry x="445" y="30" width="60" height="30" as="geometry" />
        </mxCell>
        <mxCell id="ptNBvM-OfE2qIYZedUmf-5" value="Sobre mim" style="text;html=1;align=center;verticalAlign=middle;resizable=0;points=[];autosize=1;strokeColor=none;fillColor=none;" vertex="1" parent="1">
          <mxGeometry x="519.5" y="30" width="80" height="30" as="geometry" />
        </mxCell>
        <mxCell id="ptNBvM-OfE2qIYZedUmf-6" value="Portfolio" style="text;html=1;align=center;verticalAlign=middle;resizable=0;points=[];autosize=1;strokeColor=none;fillColor=none;" vertex="1" parent="1">
          <mxGeometry x="610" y="30" width="70" height="30" as="geometry" />
        </mxCell>
        <mxCell id="ptNBvM-OfE2qIYZedUmf-7" value="Contato" style="text;html=1;align=center;verticalAlign=middle;resizable=0;points=[];autosize=1;strokeColor=none;fillColor=none;" vertex="1" parent="1">
          <mxGeometry x="690" y="30" width="70" height="30" as="geometry" />
        </mxCell>
        <mxCell id="ptNBvM-OfE2qIYZedUmf-8" value="&lt;h1&gt;Heading&lt;/h1&gt;&lt;p&gt;Lorem ipsum dolor sit amet, consectetur adipisicing elit, sed do eiusmod tempor incididunt ut labore et dolore magna aliqua.&lt;/p&gt;" style="text;html=1;strokeColor=none;fillColor=none;spacing=5;spacingTop=-20;whiteSpace=wrap;overflow=hidden;rounded=0;" vertex="1" parent="1">
          <mxGeometry x="50" y="140" width="320" height="120" as="geometry" />
        </mxCell>
        <mxCell id="ptNBvM-OfE2qIYZedUmf-9" value="" style="ellipse;whiteSpace=wrap;html=1;aspect=fixed;" vertex="1" parent="1">
          <mxGeometry x="470" y="125" width="170" height="170" as="geometry" />
        </mxCell>
        <mxCell id="ptNBvM-OfE2qIYZedUmf-10" value="Actor" style="shape=umlActor;verticalLabelPosition=bottom;verticalAlign=top;html=1;outlineConnect=0;" vertex="1" parent="1">
          <mxGeometry x="540" y="170" width="30" height="60" as="geometry" />
        </mxCell>
        <mxCell id="ptNBvM-OfE2qIYZedUmf-11" value="" style="rounded=1;whiteSpace=wrap;html=1;" vertex="1" parent="1">
          <mxGeometry x="60" y="260" width="78.2" height="30" as="geometry" />
        </mxCell>
        <mxCell id="ptNBvM-OfE2qIYZedUmf-12" value="" style="rounded=1;whiteSpace=wrap;html=1;" vertex="1" parent="1">
          <mxGeometry x="160" y="260" width="78.2" height="30" as="geometry" />
        </mxCell>
        <mxCell id="ptNBvM-OfE2qIYZedUmf-13" value="Kauan" style="text;html=1;align=center;verticalAlign=middle;resizable=0;points=[];autosize=1;strokeColor=none;fillColor=none;" vertex="1" parent="1">
          <mxGeometry x="40" y="436.8" width="60" height="30" as="geometry" />
        </mxCell>
        <mxCell id="ptNBvM-OfE2qIYZedUmf-15" value="" style="rounded=1;whiteSpace=wrap;html=1;" vertex="1" parent="1">
          <mxGeometry x="40" y="700" width="78.2" height="30" as="geometry" />
        </mxCell>
        <mxCell id="ptNBvM-OfE2qIYZedUmf-16" value="" style="rounded=1;whiteSpace=wrap;html=1;" vertex="1" parent="1">
          <mxGeometry x="138.2" y="700" width="78.2" height="30" as="geometry" />
        </mxCell>
      </root>
    </mxGraphModel>
  </diagram>
</mxfile>
